<?xml version="1.0" encoding="UTF-8"?>
<svg id="Ebene_2" data-name="Ebene 2" xmlns="http://www.w3.org/2000/svg" viewBox="0 0 511.41 135.49">
  <defs>
    <style>
      .cls-1 {
        fill: #fff;
        stroke-width: 0px;
      }
    </style>
  </defs>
  <g id="Ebene_1-2" data-name="Ebene 1">
    <g>
      <path class="cls-1" d="M13.25,64.65v29.31H3.89v-29.31H0v-7.13h3.89v-4.68c0-5.33,3.31-10.73,10.95-10.73h5.33v7.92h-3.67c-2.23,0-3.24,1.22-3.24,3.38v4.1h6.91v7.13h-6.91Z"/>
      <path class="cls-1" d="M45.43,93.95v-3.24c-2.52,2.52-4.9,3.6-9.22,3.6s-7.34-1.08-9.58-3.31c-2.02-2.09-3.1-5.11-3.1-8.42,0-5.98,4.1-10.87,12.82-10.87h8.86v-1.87c0-4.1-2.02-5.9-6.98-5.9-3.6,0-5.26.86-7.2,3.1l-5.98-5.83c3.67-4.03,7.27-5.18,13.54-5.18,10.51,0,15.99,4.46,15.99,13.25v24.7h-9.14ZM45.22,78.11h-7.42c-3.38,0-5.26,1.58-5.26,4.25s1.73,4.32,5.4,4.32c2.59,0,4.25-.22,5.91-1.8,1.01-.94,1.37-2.45,1.37-4.75v-2.02Z"/>
      <path class="cls-1" d="M85.03,66.66c-1.44-1.44-2.66-2.23-4.97-2.23-2.88,0-6.05,2.16-6.05,6.91v22.61h-9.36v-37.52h9.14v3.6c1.8-2.16,5.4-4.03,9.43-4.03,3.67,0,6.26.94,8.86,3.53l-7.06,7.13Z"/>
      <path class="cls-1" d="M141.05,93.95v-22.68c0-5.11-3.24-6.84-6.19-6.84s-6.26,1.73-6.26,6.62v22.9h-9.36v-22.68c0-5.11-3.24-6.84-6.19-6.84s-6.26,1.73-6.26,6.84v22.68h-9.36v-37.52h9.14v3.46c2.45-2.52,5.9-3.89,9.36-3.89,4.18,0,7.56,1.51,9.94,4.75,3.17-3.31,6.55-4.75,11.23-4.75,3.74,0,7.13,1.22,9.22,3.31,3.02,3.02,4.1,6.55,4.1,10.66v23.98h-9.36Z"/>
    </g>
    <path class="cls-1" d="M380.86,93.38h-8.35l-9.43-31.11-9.43,31.11h-8.35l-13.68-51.27h10.44l7.92,32.33,9.36-32.33h7.49l9.36,32.33,7.99-32.33h10.44l-13.75,51.27Z"/>
    <path class="cls-1" d="M401.01,93.38v-51.27h10.01v51.27h-10.01Z"/>
    <path class="cls-1" d="M453.29,93.38l-20.31-31.47v31.47h-10.01v-51.27h8.93l20.31,31.4v-31.4h10.01v51.27h-8.93Z"/>
    <path class="cls-1" d="M506.21,88.48c-3.38,3.38-8.21,4.9-13.54,4.9h-18.51v-51.27h18.51c5.33,0,10.15,1.51,13.54,4.9,5.76,5.76,5.18,12.82,5.18,20.52s.58,15.19-5.18,20.95ZM499.22,54.21c-1.73-2.09-4.03-3.17-7.49-3.17h-7.56v33.41h7.56c3.46,0,5.76-1.08,7.49-3.17,1.87-2.3,2.16-5.98,2.16-13.75s-.29-11.02-2.16-13.32Z"/>
    <path class="cls-1" d="M276.91.43c.12-.53,0-.58-.24-.09-2.06,4.01-4.04,8.2-5.95,12.54,1.11.53,2.2,1.1,3.27,1.69,1.11-4.66,2.08-9.37,2.92-14.14Z"/>
    <g>
      <path class="cls-1" d="M274.01,14.58c-.87,3.68-1.83,7.33-2.89,10.95-.8,2.74-1.82,5.51-2.98,8.11-.14.3-.06.47.18.61,3.08,1.22,6.16,2.56,9.26,4.01,1.82.84,3.5,1.98,5.05,3.43,6.3,5.95,12.38,12.5,18.07,19.72.2.27.15.27-.1.13-7.69-4.93-15.05-9.96-22.07-15.08-3.15-2.3-6.6-5.25-10.33-8.76l4.09,76.43c0,.29-.11.46-.46.46h-5.33c-.17,0-.29-.11-.29-.29v-26.38s0-.06-.06-.06c-.69-.11-1.32-.11-1.89-.06q-.06,0-.06.06l.06,26.44c0,.06-.06.17-.11.23-.06.06-.11.11-.23.11l-13.13-.11h-.66s0-.02,0-.02h-26.13v.06l-15.36.02c-.11,0-.17,0-.23-.06,0-.06-.06-.17-.06-.23l-.06-26.27c0-.23-.11-.34-.34-.34l-1.84.06c-.34,0-.34-.06-.11-.29l30.51-26.61c.17-.11.34-.11.46,0l30.11,26.9c.29.23.4.17.4-.17l.06-1.66c0-.17-.06-.34-.11-.52-.11-.11-.23-.29-.34-.4l-3.27-2.81c-.17-.11-.23-.29-.23-.52l1.73-44.7c-1.82,1.57-3.88,3.35-6.01,4.48-7.89,4.32-16.95,7.56-25.59,10.81-.72.31-.73.19-.14-.22,6.59-4.64,13.38-9.07,20.11-13.44,3.88-2.56,7.51-4.11,11.88-4.81.06,0,.16-.08.22-.14s.1-.13.09-.24c-.01-3.29.14-6.13.46-8.53.18-1.52.91-3.79,2.24-6.94.71-1.72,1.44-3.4,2.17-5.07-8.43-4.05-17.89-6.32-27.87-6.32-19.83,0-37.57,8.96-49.4,23.05-5.92-2.85-12.57-4.49-18.7-6.05h-.05l-.05.1s0,.05.05.1c4.6,2.1,8.95,4.3,13.11,6.55,1.19.65,2.34,1.34,3.47,2.06.7-.93,1.43-1.84,2.17-2.74,4.8,2.31,9.1,5.42,12.23,9.93,0,.05.05.05.05.05h.15c8.71-6.26,21.38-9.29,30.67-2.98.64.44.59.54-.15.24-9.39-3.57-19.37-.98-27.49,4.89-.05,0-.1.05-.1.1-.05.05-.05.1-.05.15s.05.1.05.15t.1.1l4.3,3.03c.15.1.34.15.54.15,1.52-.15,2.98-.2,4.5-.1.1,0,.15.05.1.15,0,.05-.05.1-.1.1-.59.1-1.22.15-1.91.2-.29,0-.34.1-.2.2.49.34,1.03.49,1.42.93.2.2.15.24-.1.2-1.86-.49-3.72-.24-5.63-.64-.78-.2-1.57-.29-2.4-.39-2.4-.24-4.6-1.08-6.7-2.35-1.81-1.08-3.47-2.35-5.58-2.79-.24-.05-.24-.1,0-.2.54-.2.98-.49,1.37-.88.29-.34.73-.39,1.13-.49.24-.05.29-.2.1-.34-2.58-2.44-5.43-4.66-8.52-6.64-8.08,10.77-12.86,24.15-12.86,38.64,0,35.6,28.86,64.46,64.46,64.46s64.46-28.86,64.46-64.46c0-24.31-13.46-45.47-33.32-56.45Z"/>
      <path class="cls-1" d="M250.12,112.99v-21.77c0-.3-.09-.69-.55-.89-.26-.11-.49-.11-.68-.11h-23.68c-.19,0-.42,0-.68.11-.45.2-.55.59-.55.89v21.77h12.76v-22.74h1.54v22.74h11.83ZM248.98,91.22h.57s-.57,0-.57,0h0Z"/>
    </g>
  </g>
</svg>